<svg width="457" height="562" viewBox="0 0 457 562" fill="none" xmlns="http://www.w3.org/2000/svg">
<path d="M71.3948 534.174C62.0209 534.624 48.1545 528.115 48.1545 528.115C48.1545 528.115 59.9841 517.116 68.133 510.746C81.0297 500.664 89.0761 496.038 103.197 487.722C123.274 475.898 135.129 470.147 156.609 461.063C183.191 449.821 198.848 445.145 226.738 437.635C265.947 427.076 288.644 423.028 329.077 419.054C364.424 415.58 420 416.63 420 416.63L391.051 474.392C391.051 474.392 373.112 507.11 358.026 519.228C342.94 531.346 341.802 533.403 329.077 534.174C314.635 535.048 295.236 519.228 295.236 519.228C295.236 519.228 277.955 533.488 264.657 534.174C249.77 534.941 229.592 519.228 229.592 519.228C229.592 519.228 213.61 533.073 201.051 534.174C185.91 535.5 165.172 519.228 165.172 519.228C165.172 519.228 148.158 533.538 135 534.174C120.402 534.879 100.751 519.228 100.751 519.228C100.751 519.228 84.2692 533.555 71.3948 534.174Z" fill="#FF662B"/>
<path d="M70.5794 546.142C54.2704 546.142 40 532.813 40 532.813C40 532.813 48.5622 559.068 70.5794 559.068C92.5966 559.068 101.567 546.142 101.567 546.142C101.567 546.142 118.283 563.915 136.631 561.492C154.979 559.068 165.579 546.142 165.579 546.142C165.579 546.142 183.519 561.492 199.421 561.492C215.322 561.492 230.408 546.142 230.408 546.142C230.408 546.142 248.755 561.492 264.657 561.492C280.558 561.492 294.828 546.142 294.828 546.142C294.828 546.142 313.991 563.511 332.747 561.492C351.502 559.472 355.172 553.413 361.695 546.95C371.127 537.606 375.15 515.04 375.15 515.04C375.15 515.04 356.395 544.123 332.747 546.142C309.099 548.162 294.828 530.389 294.828 530.389C294.828 530.389 282.189 546.142 264.657 546.142C247.124 546.142 230.408 530.389 230.408 530.389C230.408 530.389 216.137 546.142 199.421 546.142C182.704 546.142 165.579 530.389 165.579 530.389C165.579 530.389 152.532 544.527 136.631 546.142C120.73 547.758 101.567 530.389 101.567 530.389C101.567 530.389 86.8884 546.142 70.5794 546.142Z" fill="#FFA37F"/>
<path d="M176.18 286.82C170.494 393.861 94.6352 471.82 94.6352 471.82C94.6352 471.82 136.186 448.822 164.356 437.486C185.862 428.831 219.399 420.117 219.399 420.117C219.399 420.117 250.794 374.877 247.94 286.82C245.086 198.764 164.356 130.5 164.356 130.5C164.356 130.5 181.867 179.779 176.18 286.82Z" fill="#FFA37F"/>
<path d="M267.918 294.091C271.227 358.72 245.086 413.654 245.086 413.654C245.086 413.654 276.005 407.722 296.051 404.767C315.061 401.965 344.979 398.708 344.979 398.708C344.979 398.708 333.97 342.966 311.953 294.091C289.936 245.216 231.631 177.76 231.631 177.76C231.631 177.76 264.609 229.462 267.918 294.091Z" fill="#FF662B"/>
<path d="M0 109.5V0H456.5V109.5H288V216.5C288 216.5 255.933 178.105 232 157C208.42 136.205 167 109.5 167 109.5H0Z" fill="#FF662B"/>
</svg>
