<svg width="60" height="75" viewBox="0 0 60 75" fill="none" xmlns="http://www.w3.org/2000/svg">
<path d="M9.38381 71.3223C8.15176 71.3824 6.32922 70.5133 6.32922 70.5133C6.32922 70.5133 7.88404 69.0448 8.9551 68.1942C10.6502 66.8482 11.7077 66.2305 13.5638 65.1201C16.2026 63.5414 17.7606 62.7736 20.584 61.5606C24.0777 60.0596 26.1356 59.4353 29.8013 58.4325C34.9547 57.0228 37.9379 56.4823 43.2522 55.9517C47.898 55.4878 55.2026 55.6281 55.2026 55.6281L51.3978 63.3404C51.3978 63.3404 49.0399 67.7089 47.0571 69.3268C45.0743 70.9448 44.9247 71.2194 43.2522 71.3223C41.354 71.4391 38.8043 69.3268 38.8043 69.3268C38.8043 69.3268 36.533 71.2307 34.7851 71.3223C32.8285 71.4248 30.1765 69.3268 30.1765 69.3268C30.1765 69.3268 28.0758 71.1754 26.4252 71.3223C24.4352 71.4995 21.7093 69.3268 21.7093 69.3268C21.7093 69.3268 19.4731 71.2374 17.7437 71.3223C15.8251 71.4165 13.2422 69.3268 13.2422 69.3268C13.2422 69.3268 11.076 71.2397 9.38381 71.3223Z" fill="#FF662B"/>
<path d="M9.27661 72.9202C7.13304 72.9202 5.25742 71.1404 5.25742 71.1404C5.25742 71.1404 6.38279 74.646 9.27661 74.646C12.1704 74.646 13.3494 72.9202 13.3494 72.9202C13.3494 72.9202 15.5466 75.2932 17.9581 74.9696C20.3696 74.646 21.7629 72.9202 21.7629 72.9202C21.7629 72.9202 24.1208 74.9696 26.2108 74.9696C28.3008 74.9696 30.2836 72.9202 30.2836 72.9202C30.2836 72.9202 32.6951 74.9696 34.7851 74.9696C36.8751 74.9696 38.7507 72.9202 38.7507 72.9202C38.7507 72.9202 41.2694 75.2392 43.7345 74.9696C46.1996 74.6999 46.6819 73.8909 47.5394 73.028C48.7791 71.7804 49.3078 68.7674 49.3078 68.7674C49.3078 68.7674 46.8427 72.6505 43.7345 72.9202C40.6263 73.1898 38.7507 70.8168 38.7507 70.8168C38.7507 70.8168 37.0895 72.9202 34.7851 72.9202C32.4808 72.9202 30.2836 70.8168 30.2836 70.8168C30.2836 70.8168 28.408 72.9202 26.2108 72.9202C24.0137 72.9202 21.7629 70.8168 21.7629 70.8168C21.7629 70.8168 20.0481 72.7044 17.9581 72.9202C15.8681 73.1359 13.3494 70.8168 13.3494 70.8168C13.3494 70.8168 11.4202 72.9202 9.27661 72.9202Z" fill="#FFA37F"/>
<path d="M23.1562 38.2956C22.4088 52.5875 12.4384 62.9963 12.4384 62.9963C12.4384 62.9963 17.8995 59.9257 21.6021 58.4121C24.4288 57.2565 28.8367 56.093 28.8367 56.093C28.8367 56.093 32.9631 50.0527 32.5879 38.2956C32.2128 26.5384 21.6021 17.424 21.6021 17.424C21.6021 17.424 23.9037 24.0037 23.1562 38.2956Z" fill="#FFA37F"/>
<path d="M35.2139 39.2659C35.6488 47.895 32.2129 55.2297 32.2129 55.2297C32.2129 55.2297 36.2768 54.4378 38.9115 54.0432C41.4101 53.669 45.3423 53.2342 45.3423 53.2342C45.3423 53.2342 43.8954 45.7916 41.0015 39.2659C38.1077 32.7402 30.4444 23.7336 30.4444 23.7336C30.4444 23.7336 34.779 30.6368 35.2139 39.2659Z" fill="#FF662B"/>
<path d="M0 14.6203V0H60V14.6203H37.8532V28.9068C37.8532 28.9068 33.6385 23.7804 30.4929 20.9625C27.3936 18.186 21.9496 14.6203 21.9496 14.6203H0Z" fill="#FF662B"/>
</svg>
