<svg width="100" height="125" viewBox="0 0 100 125" fill="none" xmlns="http://www.w3.org/2000/svg">
<path d="M15.6396 118.871C13.5861 118.971 10.5486 117.522 10.5486 117.522C10.5486 117.522 13.14 115.075 14.925 113.657C17.7502 111.414 19.5128 110.384 22.6062 108.534C27.0042 105.902 29.601 104.623 34.3065 102.601C40.1294 100.099 43.5592 99.0589 49.6688 97.3876C58.2578 95.038 63.2298 94.1372 72.087 93.2528C79.83 92.4797 92.0043 92.7135 92.0043 92.7135L85.6629 105.567C85.6629 105.567 81.733 112.848 78.4284 115.545C75.1237 118.241 74.8743 118.699 72.087 118.871C68.9232 119.065 64.6738 115.545 64.6738 115.545C64.6738 115.545 60.8882 118.718 57.9751 118.871C54.714 119.041 50.294 115.545 50.294 115.545C50.294 115.545 46.7928 118.626 44.0419 118.871C40.7251 119.166 36.1821 115.545 36.1821 115.545C36.1821 115.545 32.4551 118.729 29.5728 118.871C26.375 119.028 22.0703 115.545 22.0703 115.545C22.0703 115.545 18.4598 118.733 15.6396 118.871Z" fill="#1DFFFF"/>
<path d="M15.4611 121.534C11.8885 121.534 8.76245 118.567 8.76245 118.567C8.76245 118.567 10.6381 124.41 15.4611 124.41C20.2842 124.41 22.2491 121.534 22.2491 121.534C22.2491 121.534 25.911 125.489 29.9302 124.949C33.9494 124.41 36.2716 121.534 36.2716 121.534C36.2716 121.534 40.2015 124.949 43.6848 124.949C47.1681 124.949 50.4728 121.534 50.4728 121.534C50.4728 121.534 54.492 124.949 57.9753 124.949C61.4586 124.949 64.5846 121.534 64.5846 121.534C64.5846 121.534 68.7825 125.399 72.891 124.949C76.9995 124.5 77.8033 123.152 79.2324 121.713C81.2986 119.634 82.1798 114.612 82.1798 114.612C82.1798 114.612 78.0713 121.084 72.891 121.534C67.7107 121.983 64.5846 118.028 64.5846 118.028C64.5846 118.028 61.8159 121.534 57.9753 121.534C54.1347 121.534 50.4728 118.028 50.4728 118.028C50.4728 118.028 47.3468 121.534 43.6848 121.534C40.0229 121.534 36.2716 118.028 36.2716 118.028C36.2716 118.028 33.4135 121.174 29.9302 121.534C26.4469 121.893 22.2491 118.028 22.2491 118.028C22.2491 118.028 19.0337 121.534 15.4611 121.534Z" fill="#90FFF2"/>
<path d="M38.5936 63.826C37.3479 87.6458 20.7305 104.994 20.7305 104.994C20.7305 104.994 29.8324 99.8762 36.0034 97.3535C40.7145 95.4276 48.061 93.4884 48.061 93.4884C48.061 93.4884 54.9383 83.4212 54.3131 63.826C53.6879 44.2308 36.0034 29.04 36.0034 29.04C36.0034 29.04 39.8393 40.0061 38.5936 63.826Z" fill="#90FFF2"/>
<path d="M58.6898 65.4431C59.4147 79.8249 53.6881 92.0494 53.6881 92.0494C53.6881 92.0494 60.4613 90.7295 64.8526 90.0719C69.0168 89.4483 75.5704 88.7236 75.5704 88.7236C75.5704 88.7236 73.1589 76.3193 68.3359 65.4431C63.5128 54.5668 50.7407 39.5558 50.7407 39.5558C50.7407 39.5558 57.9649 51.0613 58.6898 65.4431Z" fill="#1DFFFF"/>
<path d="M0 24.3672V0H100V24.3672H63.0887V48.1781C63.0887 48.1781 56.0641 39.634 50.8215 34.9375C45.656 30.31 36.5827 24.3672 36.5827 24.3672H0Z" fill="#1DFFFF"/>
</svg>
