<svg width="25" height="25" viewBox="0 0 25 25" fill="none" xmlns="http://www.w3.org/2000/svg">
<path d="M6.21071 4.52982C7.67541 3.36916 9.43322 2.63731 11.2888 2.41557C11.3437 2.40935 11.3993 2.41484 11.4518 2.43167C11.5044 2.4485 11.5529 2.47629 11.5939 2.5132C11.635 2.55011 11.6678 2.59531 11.6901 2.64581C11.7124 2.69632 11.7238 2.75098 11.7234 2.80619V11.7183H9.34548C9.15135 9.20287 8.02591 6.8503 6.18923 5.12064C6.14814 5.08246 6.11576 5.03587 6.09428 4.98404C6.07281 4.93222 6.06275 4.87638 6.06479 4.82032C6.06683 4.76426 6.08092 4.7093 6.1061 4.65917C6.13128 4.60904 6.16696 4.56493 6.21071 4.52982ZM4.49196 6.25639C3.35281 7.71011 2.63375 9.44816 2.41286 11.2818C2.40635 11.3368 2.41162 11.3926 2.42831 11.4454C2.44501 11.4982 2.47275 11.5469 2.50969 11.5882C2.54663 11.6295 2.59193 11.6624 2.64259 11.6848C2.69324 11.7073 2.74809 11.7187 2.80349 11.7183H7.77614C7.58343 9.61079 6.61863 7.64885 5.06716 6.20951C5.02742 6.1725 4.9804 6.14419 4.9291 6.12637C4.8778 6.10856 4.82335 6.10163 4.76922 6.10604C4.71509 6.11046 4.66248 6.1261 4.61474 6.15199C4.56701 6.17788 4.52519 6.21343 4.49196 6.25639ZM18.7888 4.52982C17.3241 3.36916 15.5663 2.63731 13.7107 2.41557C13.6558 2.40935 13.6003 2.41484 13.5477 2.43167C13.4951 2.4485 13.4467 2.47629 13.4056 2.5132C13.3646 2.55011 13.3318 2.59531 13.3095 2.64581C13.2872 2.69632 13.2758 2.75098 13.2761 2.80619V11.7183H15.6492C15.8433 9.20287 16.9688 6.8503 18.8054 5.12064C18.8468 5.0828 18.8796 5.03649 18.9014 4.98486C18.9233 4.93323 18.9338 4.87749 18.9323 4.82144C18.9307 4.76538 18.9171 4.71033 18.8923 4.66001C18.8676 4.60969 18.8323 4.56529 18.7888 4.52982ZM22.5838 11.2818C22.3637 9.44845 21.6457 7.71043 20.5076 6.25639C20.4744 6.21389 20.4327 6.17873 20.3852 6.15313C20.3377 6.12753 20.2855 6.11204 20.2317 6.10763C20.178 6.10323 20.1239 6.11001 20.0729 6.12754C20.0218 6.14508 19.975 6.17299 19.9353 6.20951C18.3828 7.64838 17.4169 9.61038 17.2234 11.7183H22.1951C22.2503 11.7184 22.305 11.7068 22.3554 11.6842C22.4058 11.6617 22.4508 11.6287 22.4876 11.5874C22.5243 11.5462 22.5519 11.4976 22.5685 11.4449C22.585 11.3922 22.5902 11.3366 22.5838 11.2818ZM2.41579 13.7173C2.63582 15.5507 3.35387 17.2887 4.49196 18.7427C4.52518 18.7852 4.56685 18.8204 4.61433 18.846C4.6618 18.8716 4.71407 18.8871 4.76783 18.8915C4.82159 18.8959 4.87568 18.8891 4.9267 18.8716C4.97771 18.854 5.02454 18.8261 5.06423 18.7896C6.61679 17.3507 7.58266 15.3887 7.77614 13.2808H2.80446C2.74923 13.2807 2.6946 13.2923 2.64418 13.3149C2.59376 13.3374 2.5487 13.3704 2.51197 13.4117C2.47524 13.4529 2.44768 13.5015 2.4311 13.5542C2.41452 13.6069 2.4093 13.6625 2.41579 13.7173ZM20.5076 18.7427C21.6467 17.289 22.3658 15.5509 22.5867 13.7173C22.5932 13.6623 22.5879 13.6065 22.5712 13.5537C22.5545 13.5009 22.5268 13.4522 22.4899 13.4109C22.4529 13.3696 22.4076 13.3367 22.357 13.3143C22.3063 13.2918 22.2515 13.2804 22.1961 13.2808H17.2234C17.4161 15.3883 18.3809 17.3503 19.9324 18.7896C19.9721 18.8266 20.0192 18.8549 20.0705 18.8727C20.1218 18.8905 20.1762 18.8975 20.2303 18.8931C20.2845 18.8886 20.3371 18.873 20.3848 18.8471C20.4325 18.8212 20.4744 18.7857 20.5076 18.7427ZM6.21071 20.4693C7.67541 21.6299 9.43322 22.3618 11.2888 22.5835C11.3437 22.5897 11.3993 22.5843 11.4518 22.5674C11.5044 22.5506 11.5529 22.5228 11.5939 22.4859C11.635 22.449 11.6678 22.4038 11.6901 22.3533C11.7124 22.3028 11.7238 22.2481 11.7234 22.1929V13.2808H9.34548C9.15135 15.7962 8.02591 18.1488 6.18923 19.8785C6.14814 19.9166 6.11576 19.9632 6.09428 20.0151C6.07281 20.0669 6.06275 20.1227 6.06479 20.1788C6.06683 20.2348 6.08092 20.2898 6.1061 20.3399C6.13128 20.3901 6.16696 20.4342 6.21071 20.4693ZM15.6541 13.2808H13.281V22.1949C13.2807 22.2501 13.292 22.3047 13.3144 22.3552C13.3367 22.4057 13.3694 22.4509 13.4105 22.4879C13.4516 22.5248 13.5 22.5526 13.5526 22.5694C13.6052 22.5862 13.6607 22.5917 13.7156 22.5855C15.5712 22.3638 17.329 21.6319 18.7937 20.4712C18.8375 20.4361 18.8732 20.392 18.8983 20.3419C18.9235 20.2918 18.9376 20.2368 18.9396 20.1807C18.9417 20.1247 18.9316 20.0688 18.9102 20.017C18.8887 19.9652 18.8563 19.9186 18.8152 19.8804C16.9763 18.151 15.849 15.7976 15.6541 13.2808Z" fill="#CCE3FF"/>
</svg>
