<svg width="25" height="25" viewBox="0 0 25 25" fill="none" xmlns="http://www.w3.org/2000/svg">
<path d="M12.5 3.125H8.33333C5.45685 3.125 3.125 5.45685 3.125 8.33333V16.6667C3.125 19.5431 5.45685 21.875 8.33333 21.875H16.6667C19.5431 21.875 21.875 19.5431 21.875 16.6667V8.33333C21.875 5.45685 19.5431 3.125 16.6667 3.125H12.5Z" stroke="#CCE3FF" stroke-width="2" stroke-linecap="round" stroke-linejoin="round"/>
<path d="M12.5002 8.33301C14.8014 8.33301 16.6668 10.1985 16.6668 12.4997C16.6668 14.8009 14.8014 16.6663 12.5002 16.6663C10.199 16.6663 8.3335 14.8008 8.3335 12.4997C8.3335 10.1985 10.199 8.33301 12.5002 8.33301Z" stroke="#CCE3FF" stroke-width="2" stroke-linecap="round" stroke-linejoin="round"/>
<path d="M17.7085 8.85449C18.5714 8.85449 19.271 8.15494 19.271 7.29199C19.271 6.42905 18.5714 5.72949 17.7085 5.72949C16.8456 5.72949 16.146 6.42905 16.146 7.29199C16.146 8.15494 16.8456 8.85449 17.7085 8.85449Z" fill="#CCE3FF"/>
</svg>
