<svg width="26" height="25" viewBox="0 0 26 25" fill="none" xmlns="http://www.w3.org/2000/svg">
<path d="M7.51839 5.2084C7.51811 5.76093 7.28956 6.29073 6.88302 6.68123C6.47649 7.07174 5.92528 7.29097 5.35064 7.29069C4.77601 7.29041 4.22502 7.07066 3.81889 6.67976C3.41277 6.28886 3.18477 5.75885 3.18506 5.20632C3.18535 4.65378 3.41389 4.12399 3.82043 3.73348C4.22696 3.34298 4.77817 3.12375 5.35281 3.12402C5.92744 3.1243 6.47843 3.34406 6.88456 3.73495C7.29068 4.12585 7.51868 4.65586 7.51839 5.2084ZM7.58339 8.8334H3.25006V21.8751H7.58339V8.8334ZM14.4301 8.8334H10.1184V21.8751H14.3867V15.0313C14.3867 11.2188 19.5542 10.8646 19.5542 15.0313V21.8751H23.8334V13.6146C23.8334 7.18756 16.1851 7.42715 14.3867 10.5834L14.4301 8.8334Z" fill="#CCE3FF"/>
</svg>
