<svg width="25" height="25" viewBox="0 0 25 25" fill="none" xmlns="http://www.w3.org/2000/svg">
<path d="M1.5625 12.5005C1.56186 12.7657 1.62987 13.0267 1.75992 13.2578C1.88998 13.489 2.07765 13.6826 2.30469 13.8198L16.375 22.4272C16.6122 22.5725 16.8839 22.6518 17.162 22.6569C17.4401 22.6621 17.7146 22.5929 17.957 22.4565C18.1972 22.3223 18.3972 22.1265 18.5366 21.8893C18.6759 21.6521 18.7496 21.382 18.75 21.1069V3.89404C18.7496 3.61893 18.6759 3.34889 18.5366 3.11169C18.3972 2.87449 18.1972 2.67869 17.957 2.54443C17.7146 2.40805 17.4401 2.33887 17.162 2.34402C16.8839 2.34917 16.6122 2.42847 16.375 2.57373L2.30469 11.1811C2.07765 11.3183 1.88998 11.5119 1.75992 11.7431C1.62987 11.9743 1.56186 12.2352 1.5625 12.5005Z" fill="#CCE3FF"/>
</svg>
