<svg width="41" height="33" viewBox="0 0 41 33" fill="none" xmlns="http://www.w3.org/2000/svg">
<path d="M16.2219 33H0.221936C0.221936 33 -0.277344 14.5 0.221936 11C0.721216 7.5 2.16197 5.76131 4.72194 3.5C8.24028 0.392131 16.2219 0 16.2219 0V8.5C16.2219 8.5 13.1081 8.77115 11.7219 10C9.62993 11.8546 10.2219 17 10.2219 17H16.2219V33Z" fill="#00FF77"/>
<path d="M40.2219 33H24.2219C24.2219 33 23.7227 14.5 24.2219 11C24.7212 7.5 26.162 5.76131 28.7219 3.5C32.2403 0.392131 40.2219 0 40.2219 0V8.5C40.2219 8.5 37.1081 8.77115 35.7219 10C33.6299 11.8546 34.2219 17 34.2219 17H40.2219V33Z" fill="#00FF77"/>
</svg>
